<?xml version="1.0" encoding="UTF-8" standalone="no"?>
<!DOCTYPE svg PUBLIC "-//W3C//DTD SVG 1.1//EN"
 "http://www.w3.org/Graphics/SVG/1.1/DTD/svg11.dtd">
<!-- Generated by graphviz version 8.1.0 (20230707.0739)
 -->
<!-- Title: G Pages: 1 -->
<svg width="836pt" height="1432pt"
 viewBox="0.00 0.00 835.95 1431.70" xmlns="http://www.w3.org/2000/svg" xmlns:xlink="http://www.w3.org/1999/xlink">
<g id="graph0" class="graph" transform="scale(1 1) rotate(0) translate(21.6 1410.1)">
<title>G</title>
<polygon fill="#111111" stroke="none" points="-21.6,21.6 -21.6,-1410.1 814.35,-1410.1 814.35,21.6 -21.6,21.6"/>
<!-- app/@types/models/type.d.ts -->
<g id="node1" class="node">
<title>app/@types/models/type.d.ts</title>
<path fill="none" stroke="#cfffac" d="M236.96,-24.5C236.96,-24.5 52.04,-24.5 52.04,-24.5 47.96,-24.5 43.88,-20.42 43.88,-16.33 43.88,-16.33 43.88,-8.17 43.88,-8.17 43.88,-4.08 47.96,0 52.04,0 52.04,0 236.96,0 236.96,0 241.04,0 245.12,-4.08 245.12,-8.17 245.12,-8.17 245.12,-16.33 245.12,-16.33 245.12,-20.42 241.04,-24.5 236.96,-24.5"/>
<text text-anchor="middle" x="144.5" y="-7.2" font-family="Arial" font-size="14.00" fill="#cfffac">app/@types/models/type.d.ts</text>
</g>
<!-- app/@types/views/type.d.ts -->
<g id="node2" class="node">
<title>app/@types/views/type.d.ts</title>
<path fill="none" stroke="#cfffac" d="M230.96,-67.5C230.96,-67.5 58.04,-67.5 58.04,-67.5 53.96,-67.5 49.88,-63.42 49.88,-59.33 49.88,-59.33 49.88,-51.17 49.88,-51.17 49.88,-47.08 53.96,-43 58.04,-43 58.04,-43 230.96,-43 230.96,-43 235.04,-43 239.12,-47.08 239.12,-51.17 239.12,-51.17 239.12,-59.33 239.12,-59.33 239.12,-63.42 235.04,-67.5 230.96,-67.5"/>
<text text-anchor="middle" x="144.5" y="-50.2" font-family="Arial" font-size="14.00" fill="#cfffac">app/@types/views/type.d.ts</text>
</g>
<!-- app/apis/index.ts -->
<g id="node3" class="node">
<title>app/apis/index.ts</title>
<path fill="none" stroke="#cfffac" d="M197.58,-110.5C197.58,-110.5 91.42,-110.5 91.42,-110.5 87.33,-110.5 83.25,-106.42 83.25,-102.33 83.25,-102.33 83.25,-94.17 83.25,-94.17 83.25,-90.08 87.33,-86 91.42,-86 91.42,-86 197.58,-86 197.58,-86 201.67,-86 205.75,-90.08 205.75,-94.17 205.75,-94.17 205.75,-102.33 205.75,-102.33 205.75,-106.42 201.67,-110.5 197.58,-110.5"/>
<text text-anchor="middle" x="144.5" y="-93.2" font-family="Arial" font-size="14.00" fill="#cfffac">app/apis/index.ts</text>
</g>
<!-- app/app.tsx -->
<g id="node4" class="node">
<title>app/app.tsx</title>
<path fill="none" stroke="#cfffac" d="M486.21,-153.5C486.21,-153.5 413.04,-153.5 413.04,-153.5 408.96,-153.5 404.88,-149.42 404.88,-145.33 404.88,-145.33 404.88,-137.17 404.88,-137.17 404.88,-133.08 408.96,-129 413.04,-129 413.04,-129 486.21,-129 486.21,-129 490.29,-129 494.38,-133.08 494.38,-137.17 494.38,-137.17 494.38,-145.33 494.38,-145.33 494.38,-149.42 490.29,-153.5 486.21,-153.5"/>
<text text-anchor="middle" x="449.62" y="-136.2" font-family="Arial" font-size="14.00" fill="#cfffac">app/app.tsx</text>
</g>
<!-- app/assets/img/logo.png -->
<g id="node5" class="node">
<title>app/assets/img/logo.png</title>
<path fill="none" stroke="#cfffac" d="M779.33,-239.5C779.33,-239.5 623.67,-239.5 623.67,-239.5 619.58,-239.5 615.5,-235.42 615.5,-231.33 615.5,-231.33 615.5,-223.17 615.5,-223.17 615.5,-219.08 619.58,-215 623.67,-215 623.67,-215 779.33,-215 779.33,-215 783.42,-215 787.5,-219.08 787.5,-223.17 787.5,-223.17 787.5,-231.33 787.5,-231.33 787.5,-235.42 783.42,-239.5 779.33,-239.5"/>
<text text-anchor="middle" x="701.5" y="-222.2" font-family="Arial" font-size="14.00" fill="#cfffac">app/assets/img/logo.png</text>
</g>
<!-- app/components/atoms/button.tsx -->
<g id="node6" class="node">
<title>app/components/atoms/button.tsx</title>
<path fill="none" stroke="#cfffac" d="M556.33,-368.5C556.33,-368.5 342.92,-368.5 342.92,-368.5 338.83,-368.5 334.75,-364.42 334.75,-360.33 334.75,-360.33 334.75,-352.17 334.75,-352.17 334.75,-348.08 338.83,-344 342.92,-344 342.92,-344 556.33,-344 556.33,-344 560.42,-344 564.5,-348.08 564.5,-352.17 564.5,-352.17 564.5,-360.33 564.5,-360.33 564.5,-364.42 560.42,-368.5 556.33,-368.5"/>
<text text-anchor="middle" x="449.62" y="-351.2" font-family="Arial" font-size="14.00" fill="#cfffac">app/components/atoms/button.tsx</text>
</g>
<!-- app/components/atoms/image.tsx -->
<g id="node7" class="node">
<title>app/components/atoms/image.tsx</title>
<path fill="none" stroke="#cfffac" d="M556.33,-325.5C556.33,-325.5 342.92,-325.5 342.92,-325.5 338.83,-325.5 334.75,-321.42 334.75,-317.33 334.75,-317.33 334.75,-309.17 334.75,-309.17 334.75,-305.08 338.83,-301 342.92,-301 342.92,-301 556.33,-301 556.33,-301 560.42,-301 564.5,-305.08 564.5,-309.17 564.5,-309.17 564.5,-317.33 564.5,-317.33 564.5,-321.42 560.42,-325.5 556.33,-325.5"/>
<text text-anchor="middle" x="449.62" y="-308.2" font-family="Arial" font-size="14.00" fill="#cfffac">app/components/atoms/image.tsx</text>
</g>
<!-- app/components/atoms/index.ts -->
<g id="node8" class="node">
<title>app/components/atoms/index.ts</title>
<path fill="none" stroke="#c6c5fe" d="M245.21,-325.5C245.21,-325.5 43.79,-325.5 43.79,-325.5 39.71,-325.5 35.62,-321.42 35.62,-317.33 35.62,-317.33 35.62,-309.17 35.62,-309.17 35.62,-305.08 39.71,-301 43.79,-301 43.79,-301 245.21,-301 245.21,-301 249.29,-301 253.38,-305.08 253.38,-309.17 253.38,-309.17 253.38,-317.33 253.38,-317.33 253.38,-321.42 249.29,-325.5 245.21,-325.5"/>
<text text-anchor="middle" x="144.5" y="-308.2" font-family="Arial" font-size="14.00" fill="#c6c5fe">app/components/atoms/index.ts</text>
</g>
<!-- app/components/atoms/index.ts&#45;&gt;app/components/atoms/button.tsx -->
<g id="edge1" class="edge">
<title>app/components/atoms/index.ts&#45;&gt;app/components/atoms/button.tsx</title>
<path fill="none" stroke="#757575" d="M235.22,-325.98C270.73,-331.01 311.71,-336.83 348.21,-342.01"/>
<polygon fill="#757575" stroke="#757575" points="347.48,-345.58 357.88,-343.52 348.47,-338.65 347.48,-345.58"/>
</g>
<!-- app/components/atoms/index.ts&#45;&gt;app/components/atoms/image.tsx -->
<g id="edge2" class="edge">
<title>app/components/atoms/index.ts&#45;&gt;app/components/atoms/image.tsx</title>
<path fill="none" stroke="#757575" d="M253.65,-313.25C276.26,-313.25 300.27,-313.25 323.43,-313.25"/>
<polygon fill="#757575" stroke="#757575" points="323.36,-316.75 333.36,-313.25 323.36,-309.75 323.36,-316.75"/>
</g>
<!-- app/components/atoms/layout.tsx -->
<g id="node9" class="node">
<title>app/components/atoms/layout.tsx</title>
<path fill="none" stroke="#cfffac" d="M555.21,-282.5C555.21,-282.5 344.04,-282.5 344.04,-282.5 339.96,-282.5 335.88,-278.42 335.88,-274.33 335.88,-274.33 335.88,-266.17 335.88,-266.17 335.88,-262.08 339.96,-258 344.04,-258 344.04,-258 555.21,-258 555.21,-258 559.29,-258 563.38,-262.08 563.38,-266.17 563.38,-266.17 563.38,-274.33 563.38,-274.33 563.38,-278.42 559.29,-282.5 555.21,-282.5"/>
<text text-anchor="middle" x="449.62" y="-265.2" font-family="Arial" font-size="14.00" fill="#cfffac">app/components/atoms/layout.tsx</text>
</g>
<!-- app/components/atoms/index.ts&#45;&gt;app/components/atoms/layout.tsx -->
<g id="edge3" class="edge">
<title>app/components/atoms/index.ts&#45;&gt;app/components/atoms/layout.tsx</title>
<path fill="none" stroke="#757575" d="M235.22,-300.52C270.73,-295.49 311.71,-289.67 348.21,-284.49"/>
<polygon fill="#757575" stroke="#757575" points="348.47,-287.85 357.88,-282.98 347.48,-280.92 348.47,-287.85"/>
</g>
<!-- app/components/index.ts -->
<g id="node10" class="node">
<title>app/components/index.ts</title>
<path fill="none" stroke="#cfffac" d="M223.83,-368.5C223.83,-368.5 65.17,-368.5 65.17,-368.5 61.08,-368.5 57,-364.42 57,-360.33 57,-360.33 57,-352.17 57,-352.17 57,-348.08 61.08,-344 65.17,-344 65.17,-344 223.83,-344 223.83,-344 227.92,-344 232,-348.08 232,-352.17 232,-352.17 232,-360.33 232,-360.33 232,-364.42 227.92,-368.5 223.83,-368.5"/>
<text text-anchor="middle" x="144.5" y="-351.2" font-family="Arial" font-size="14.00" fill="#cfffac">app/components/index.ts</text>
</g>
<!-- app/components/molecules/index.ts -->
<g id="node11" class="node">
<title>app/components/molecules/index.ts</title>
<path fill="none" stroke="#cfffac" d="M258.33,-411.5C258.33,-411.5 30.67,-411.5 30.67,-411.5 26.58,-411.5 22.5,-407.42 22.5,-403.33 22.5,-403.33 22.5,-395.17 22.5,-395.17 22.5,-391.08 26.58,-387 30.67,-387 30.67,-387 258.33,-387 258.33,-387 262.42,-387 266.5,-391.08 266.5,-395.17 266.5,-395.17 266.5,-403.33 266.5,-403.33 266.5,-407.42 262.42,-411.5 258.33,-411.5"/>
<text text-anchor="middle" x="144.5" y="-394.2" font-family="Arial" font-size="14.00" fill="#cfffac">app/components/molecules/index.ts</text>
</g>
<!-- app/components/organisms/index.ts -->
<g id="node12" class="node">
<title>app/components/organisms/index.ts</title>
<path fill="none" stroke="#cfffac" d="M258.71,-454.5C258.71,-454.5 30.29,-454.5 30.29,-454.5 26.21,-454.5 22.12,-450.42 22.12,-446.33 22.12,-446.33 22.12,-438.17 22.12,-438.17 22.12,-434.08 26.21,-430 30.29,-430 30.29,-430 258.71,-430 258.71,-430 262.79,-430 266.88,-434.08 266.88,-438.17 266.88,-438.17 266.88,-446.33 266.88,-446.33 266.88,-450.42 262.79,-454.5 258.71,-454.5"/>
<text text-anchor="middle" x="144.5" y="-437.2" font-family="Arial" font-size="14.00" fill="#cfffac">app/components/organisms/index.ts</text>
</g>
<!-- app/constants/app&#45;path.ts -->
<g id="node13" class="node">
<title>app/constants/app&#45;path.ts</title>
<path fill="none" stroke="#cfffac" d="M530.83,-497.5C530.83,-497.5 368.42,-497.5 368.42,-497.5 364.33,-497.5 360.25,-493.42 360.25,-489.33 360.25,-489.33 360.25,-481.17 360.25,-481.17 360.25,-477.08 364.33,-473 368.42,-473 368.42,-473 530.83,-473 530.83,-473 534.92,-473 539,-477.08 539,-481.17 539,-481.17 539,-489.33 539,-489.33 539,-493.42 534.92,-497.5 530.83,-497.5"/>
<text text-anchor="middle" x="449.62" y="-480.2" font-family="Arial" font-size="14.00" fill="#cfffac">app/constants/app&#45;path.ts</text>
</g>
<!-- app/constants/index.ts -->
<g id="node14" class="node">
<title>app/constants/index.ts</title>
<path fill="none" stroke="#c6c5fe" d="M214.83,-497.5C214.83,-497.5 74.17,-497.5 74.17,-497.5 70.08,-497.5 66,-493.42 66,-489.33 66,-489.33 66,-481.17 66,-481.17 66,-477.08 70.08,-473 74.17,-473 74.17,-473 214.83,-473 214.83,-473 218.92,-473 223,-477.08 223,-481.17 223,-481.17 223,-489.33 223,-489.33 223,-493.42 218.92,-497.5 214.83,-497.5"/>
<text text-anchor="middle" x="144.5" y="-480.2" font-family="Arial" font-size="14.00" fill="#c6c5fe">app/constants/index.ts</text>
</g>
<!-- app/constants/index.ts&#45;&gt;app/constants/app&#45;path.ts -->
<g id="edge4" class="edge">
<title>app/constants/index.ts&#45;&gt;app/constants/app&#45;path.ts</title>
<path fill="none" stroke="#757575" d="M223.17,-485.25C261.49,-485.25 308.16,-485.25 349.08,-485.25"/>
<polygon fill="#757575" stroke="#757575" points="348.9,-488.75 358.9,-485.25 348.9,-481.75 348.9,-488.75"/>
</g>
<!-- app/hooks/index.ts -->
<g id="node15" class="node">
<title>app/hooks/index.ts</title>
<path fill="none" stroke="#cfffac" d="M203.58,-540.5C203.58,-540.5 85.42,-540.5 85.42,-540.5 81.33,-540.5 77.25,-536.42 77.25,-532.33 77.25,-532.33 77.25,-524.17 77.25,-524.17 77.25,-520.08 81.33,-516 85.42,-516 85.42,-516 203.58,-516 203.58,-516 207.67,-516 211.75,-520.08 211.75,-524.17 211.75,-524.17 211.75,-532.33 211.75,-532.33 211.75,-536.42 207.67,-540.5 203.58,-540.5"/>
<text text-anchor="middle" x="144.5" y="-523.2" font-family="Arial" font-size="14.00" fill="#cfffac">app/hooks/index.ts</text>
</g>
<!-- app/hooks/use&#45;xxx.ts -->
<g id="node16" class="node">
<title>app/hooks/use&#45;xxx.ts</title>
<path fill="none" stroke="#cfffac" d="M210.71,-583.5C210.71,-583.5 78.29,-583.5 78.29,-583.5 74.21,-583.5 70.12,-579.42 70.12,-575.33 70.12,-575.33 70.12,-567.17 70.12,-567.17 70.12,-563.08 74.21,-559 78.29,-559 78.29,-559 210.71,-559 210.71,-559 214.79,-559 218.88,-563.08 218.88,-567.17 218.88,-567.17 218.88,-575.33 218.88,-575.33 218.88,-579.42 214.79,-583.5 210.71,-583.5"/>
<text text-anchor="middle" x="144.5" y="-566.2" font-family="Arial" font-size="14.00" fill="#cfffac">app/hooks/use&#45;xxx.ts</text>
</g>
<!-- app/index.ts -->
<g id="node17" class="node">
<title>app/index.ts</title>
<path fill="none" stroke="#c6c5fe" d="M182.58,-153.5C182.58,-153.5 106.42,-153.5 106.42,-153.5 102.33,-153.5 98.25,-149.42 98.25,-145.33 98.25,-145.33 98.25,-137.17 98.25,-137.17 98.25,-133.08 102.33,-129 106.42,-129 106.42,-129 182.58,-129 182.58,-129 186.67,-129 190.75,-133.08 190.75,-137.17 190.75,-137.17 190.75,-145.33 190.75,-145.33 190.75,-149.42 186.67,-153.5 182.58,-153.5"/>
<text text-anchor="middle" x="144.5" y="-136.2" font-family="Arial" font-size="14.00" fill="#c6c5fe">app/index.ts</text>
</g>
<!-- app/index.ts&#45;&gt;app/app.tsx -->
<g id="edge5" class="edge">
<title>app/index.ts&#45;&gt;app/app.tsx</title>
<path fill="none" stroke="#757575" d="M191.21,-141.25C245.44,-141.25 335.77,-141.25 393.73,-141.25"/>
<polygon fill="#757575" stroke="#757575" points="393.52,-144.75 403.52,-141.25 393.52,-137.75 393.52,-144.75"/>
</g>
<!-- app/pages/home.tsx -->
<g id="node18" class="node">
<title>app/pages/home.tsx</title>
<path fill="none" stroke="#c6c5fe" d="M513.96,-239.5C513.96,-239.5 385.29,-239.5 385.29,-239.5 381.21,-239.5 377.12,-235.42 377.12,-231.33 377.12,-231.33 377.12,-223.17 377.12,-223.17 377.12,-219.08 381.21,-215 385.29,-215 385.29,-215 513.96,-215 513.96,-215 518.04,-215 522.12,-219.08 522.12,-223.17 522.12,-223.17 522.12,-231.33 522.12,-231.33 522.12,-235.42 518.04,-239.5 513.96,-239.5"/>
<text text-anchor="middle" x="449.62" y="-222.2" font-family="Arial" font-size="14.00" fill="#c6c5fe">app/pages/home.tsx</text>
</g>
<!-- app/pages/home.tsx&#45;&gt;app/assets/img/logo.png -->
<g id="edge6" class="edge">
<title>app/pages/home.tsx&#45;&gt;app/assets/img/logo.png</title>
<path fill="none" stroke="#757575" d="M522.56,-227.25C548.15,-227.25 577.37,-227.25 604.64,-227.25"/>
<polygon fill="#757575" stroke="#757575" points="604.38,-230.75 614.38,-227.25 604.38,-223.75 604.38,-230.75"/>
</g>
<!-- app/pages/index.ts -->
<g id="node19" class="node">
<title>app/pages/index.ts</title>
<path fill="none" stroke="#c6c5fe" d="M204.33,-218.5C204.33,-218.5 84.67,-218.5 84.67,-218.5 80.58,-218.5 76.5,-214.42 76.5,-210.33 76.5,-210.33 76.5,-202.17 76.5,-202.17 76.5,-198.08 80.58,-194 84.67,-194 84.67,-194 204.33,-194 204.33,-194 208.42,-194 212.5,-198.08 212.5,-202.17 212.5,-202.17 212.5,-210.33 212.5,-210.33 212.5,-214.42 208.42,-218.5 204.33,-218.5"/>
<text text-anchor="middle" x="144.5" y="-201.2" font-family="Arial" font-size="14.00" fill="#c6c5fe">app/pages/index.ts</text>
</g>
<!-- app/pages/index.ts&#45;&gt;app/pages/home.tsx -->
<g id="edge7" class="edge">
<title>app/pages/index.ts&#45;&gt;app/pages/home.tsx</title>
<path fill="none" stroke="#757575" d="M212.77,-210.91C258.01,-214.04 317.95,-218.2 366.08,-221.53"/>
<polygon fill="#757575" stroke="#757575" points="365.56,-225.07 375.78,-222.27 366.05,-218.09 365.56,-225.07"/>
</g>
<!-- app/pages/page&#45;not&#45;found.tsx -->
<g id="node20" class="node">
<title>app/pages/page&#45;not&#45;found.tsx</title>
<path fill="none" stroke="#cfffac" d="M544.33,-196.5C544.33,-196.5 354.92,-196.5 354.92,-196.5 350.83,-196.5 346.75,-192.42 346.75,-188.33 346.75,-188.33 346.75,-180.17 346.75,-180.17 346.75,-176.08 350.83,-172 354.92,-172 354.92,-172 544.33,-172 544.33,-172 548.42,-172 552.5,-176.08 552.5,-180.17 552.5,-180.17 552.5,-188.33 552.5,-188.33 552.5,-192.42 548.42,-196.5 544.33,-196.5"/>
<text text-anchor="middle" x="449.62" y="-179.2" font-family="Arial" font-size="14.00" fill="#cfffac">app/pages/page&#45;not&#45;found.tsx</text>
</g>
<!-- app/pages/index.ts&#45;&gt;app/pages/page&#45;not&#45;found.tsx -->
<g id="edge8" class="edge">
<title>app/pages/index.ts&#45;&gt;app/pages/page&#45;not&#45;found.tsx</title>
<path fill="none" stroke="#757575" d="M212.77,-201.37C248.8,-198.75 294.14,-195.46 335.42,-192.47"/>
<polygon fill="#757575" stroke="#757575" points="335.66,-195.89 345.38,-191.67 335.15,-188.9 335.66,-195.89"/>
</g>
<!-- app/routers/index.ts -->
<g id="node21" class="node">
<title>app/routers/index.ts</title>
<path fill="none" stroke="#c6c5fe" d="M206.58,-626.5C206.58,-626.5 82.42,-626.5 82.42,-626.5 78.33,-626.5 74.25,-622.42 74.25,-618.33 74.25,-618.33 74.25,-610.17 74.25,-610.17 74.25,-606.08 78.33,-602 82.42,-602 82.42,-602 206.58,-602 206.58,-602 210.67,-602 214.75,-606.08 214.75,-610.17 214.75,-610.17 214.75,-618.33 214.75,-618.33 214.75,-622.42 210.67,-626.5 206.58,-626.5"/>
<text text-anchor="middle" x="144.5" y="-609.2" font-family="Arial" font-size="14.00" fill="#c6c5fe">app/routers/index.ts</text>
</g>
<!-- app/routers/router.tsx -->
<g id="node22" class="node">
<title>app/routers/router.tsx</title>
<path fill="none" stroke="#cfffac" d="M516.58,-626.5C516.58,-626.5 382.67,-626.5 382.67,-626.5 378.58,-626.5 374.5,-622.42 374.5,-618.33 374.5,-618.33 374.5,-610.17 374.5,-610.17 374.5,-606.08 378.58,-602 382.67,-602 382.67,-602 516.58,-602 516.58,-602 520.67,-602 524.75,-606.08 524.75,-610.17 524.75,-610.17 524.75,-618.33 524.75,-618.33 524.75,-622.42 520.67,-626.5 516.58,-626.5"/>
<text text-anchor="middle" x="449.62" y="-609.2" font-family="Arial" font-size="14.00" fill="#cfffac">app/routers/router.tsx</text>
</g>
<!-- app/routers/index.ts&#45;&gt;app/routers/router.tsx -->
<g id="edge9" class="edge">
<title>app/routers/index.ts&#45;&gt;app/routers/router.tsx</title>
<path fill="none" stroke="#757575" d="M215.04,-614.25C259.15,-614.25 316.52,-614.25 363.36,-614.25"/>
<polygon fill="#757575" stroke="#757575" points="363.11,-617.75 373.11,-614.25 363.11,-610.75 363.11,-617.75"/>
</g>
<!-- app/stores/global.ts -->
<g id="node23" class="node">
<title>app/stores/global.ts</title>
<path fill="none" stroke="#cfffac" d="M511.71,-669.5C511.71,-669.5 387.54,-669.5 387.54,-669.5 383.46,-669.5 379.38,-665.42 379.38,-661.33 379.38,-661.33 379.38,-653.17 379.38,-653.17 379.38,-649.08 383.46,-645 387.54,-645 387.54,-645 511.71,-645 511.71,-645 515.79,-645 519.88,-649.08 519.88,-653.17 519.88,-653.17 519.88,-661.33 519.88,-661.33 519.88,-665.42 515.79,-669.5 511.71,-669.5"/>
<text text-anchor="middle" x="449.62" y="-652.2" font-family="Arial" font-size="14.00" fill="#cfffac">app/stores/global.ts</text>
</g>
<!-- app/stores/index.ts -->
<g id="node24" class="node">
<title>app/stores/index.ts</title>
<path fill="none" stroke="#c6c5fe" d="M204.33,-669.5C204.33,-669.5 84.67,-669.5 84.67,-669.5 80.58,-669.5 76.5,-665.42 76.5,-661.33 76.5,-661.33 76.5,-653.17 76.5,-653.17 76.5,-649.08 80.58,-645 84.67,-645 84.67,-645 204.33,-645 204.33,-645 208.42,-645 212.5,-649.08 212.5,-653.17 212.5,-653.17 212.5,-661.33 212.5,-661.33 212.5,-665.42 208.42,-669.5 204.33,-669.5"/>
<text text-anchor="middle" x="144.5" y="-652.2" font-family="Arial" font-size="14.00" fill="#c6c5fe">app/stores/index.ts</text>
</g>
<!-- app/stores/index.ts&#45;&gt;app/stores/global.ts -->
<g id="edge10" class="edge">
<title>app/stores/index.ts&#45;&gt;app/stores/global.ts</title>
<path fill="none" stroke="#757575" d="M212.77,-657.25C258.66,-657.25 319.67,-657.25 368.14,-657.25"/>
<polygon fill="#757575" stroke="#757575" points="367.91,-660.75 377.91,-657.25 367.91,-653.75 367.91,-660.75"/>
</g>
<!-- app/theme/index.ts -->
<g id="node25" class="node">
<title>app/theme/index.ts</title>
<path fill="none" stroke="#c6c5fe" d="M204.33,-712.5C204.33,-712.5 84.67,-712.5 84.67,-712.5 80.58,-712.5 76.5,-708.42 76.5,-704.33 76.5,-704.33 76.5,-696.17 76.5,-696.17 76.5,-692.08 80.58,-688 84.67,-688 84.67,-688 204.33,-688 204.33,-688 208.42,-688 212.5,-692.08 212.5,-696.17 212.5,-696.17 212.5,-704.33 212.5,-704.33 212.5,-708.42 208.42,-712.5 204.33,-712.5"/>
<text text-anchor="middle" x="144.5" y="-695.2" font-family="Arial" font-size="14.00" fill="#c6c5fe">app/theme/index.ts</text>
</g>
<!-- app/theme/theme.tsx -->
<g id="node26" class="node">
<title>app/theme/theme.tsx</title>
<path fill="none" stroke="#cfffac" d="M515.83,-712.5C515.83,-712.5 383.42,-712.5 383.42,-712.5 379.33,-712.5 375.25,-708.42 375.25,-704.33 375.25,-704.33 375.25,-696.17 375.25,-696.17 375.25,-692.08 379.33,-688 383.42,-688 383.42,-688 515.83,-688 515.83,-688 519.92,-688 524,-692.08 524,-696.17 524,-696.17 524,-704.33 524,-704.33 524,-708.42 519.92,-712.5 515.83,-712.5"/>
<text text-anchor="middle" x="449.62" y="-695.2" font-family="Arial" font-size="14.00" fill="#cfffac">app/theme/theme.tsx</text>
</g>
<!-- app/theme/index.ts&#45;&gt;app/theme/theme.tsx -->
<g id="edge11" class="edge">
<title>app/theme/index.ts&#45;&gt;app/theme/theme.tsx</title>
<path fill="none" stroke="#757575" d="M212.77,-700.25C257.35,-700.25 316.2,-700.25 363.96,-700.25"/>
<polygon fill="#757575" stroke="#757575" points="363.91,-703.75 373.91,-700.25 363.91,-696.75 363.91,-703.75"/>
</g>
<!-- app/utils/index.ts -->
<g id="node27" class="node">
<title>app/utils/index.ts</title>
<path fill="none" stroke="#cfffac" d="M196.83,-755.5C196.83,-755.5 92.17,-755.5 92.17,-755.5 88.08,-755.5 84,-751.42 84,-747.33 84,-747.33 84,-739.17 84,-739.17 84,-735.08 88.08,-731 92.17,-731 92.17,-731 196.83,-731 196.83,-731 200.92,-731 205,-735.08 205,-739.17 205,-739.17 205,-747.33 205,-747.33 205,-751.42 200.92,-755.5 196.83,-755.5"/>
<text text-anchor="middle" x="144.5" y="-738.2" font-family="Arial" font-size="14.00" fill="#cfffac">app/utils/index.ts</text>
</g>
<!-- env.d.ts -->
<g id="node28" class="node">
<title>env.d.ts</title>
<path fill="none" stroke="#cfffac" d="M169.08,-798.5C169.08,-798.5 119.92,-798.5 119.92,-798.5 115.83,-798.5 111.75,-794.42 111.75,-790.33 111.75,-790.33 111.75,-782.17 111.75,-782.17 111.75,-778.08 115.83,-774 119.92,-774 119.92,-774 169.08,-774 169.08,-774 173.17,-774 177.25,-778.08 177.25,-782.17 177.25,-782.17 177.25,-790.33 177.25,-790.33 177.25,-794.42 173.17,-798.5 169.08,-798.5"/>
<text text-anchor="middle" x="144.5" y="-781.2" font-family="Arial" font-size="14.00" fill="#cfffac">env.d.ts</text>
</g>
<!-- index.css -->
<g id="node29" class="node">
<title>index.css</title>
<path fill="none" stroke="#cfffac" d="M479.46,-841.5C479.46,-841.5 419.79,-841.5 419.79,-841.5 415.71,-841.5 411.62,-837.42 411.62,-833.33 411.62,-833.33 411.62,-825.17 411.62,-825.17 411.62,-821.08 415.71,-817 419.79,-817 419.79,-817 479.46,-817 479.46,-817 483.54,-817 487.62,-821.08 487.62,-825.17 487.62,-825.17 487.62,-833.33 487.62,-833.33 487.62,-837.42 483.54,-841.5 479.46,-841.5"/>
<text text-anchor="middle" x="449.62" y="-824.2" font-family="Arial" font-size="14.00" fill="#cfffac">index.css</text>
</g>
<!-- index.tsx -->
<g id="node30" class="node">
<title>index.tsx</title>
<path fill="none" stroke="#c6c5fe" d="M172.08,-841.5C172.08,-841.5 116.92,-841.5 116.92,-841.5 112.83,-841.5 108.75,-837.42 108.75,-833.33 108.75,-833.33 108.75,-825.17 108.75,-825.17 108.75,-821.08 112.83,-817 116.92,-817 116.92,-817 172.08,-817 172.08,-817 176.17,-817 180.25,-821.08 180.25,-825.17 180.25,-825.17 180.25,-833.33 180.25,-833.33 180.25,-837.42 176.17,-841.5 172.08,-841.5"/>
<text text-anchor="middle" x="144.5" y="-824.2" font-family="Arial" font-size="14.00" fill="#c6c5fe">index.tsx</text>
</g>
<!-- index.tsx&#45;&gt;index.css -->
<g id="edge12" class="edge">
<title>index.tsx&#45;&gt;index.css</title>
<path fill="none" stroke="#757575" d="M180.57,-829.25C234.85,-829.25 339.34,-829.25 400.6,-829.25"/>
<polygon fill="#757575" stroke="#757575" points="400.51,-832.75 410.51,-829.25 400.51,-825.75 400.51,-832.75"/>
</g>
<!-- reset.d.ts -->
<g id="node31" class="node">
<title>reset.d.ts</title>
<path fill="none" stroke="#cfffac" d="M173.96,-884.5C173.96,-884.5 115.04,-884.5 115.04,-884.5 110.96,-884.5 106.88,-880.42 106.88,-876.33 106.88,-876.33 106.88,-868.17 106.88,-868.17 106.88,-864.08 110.96,-860 115.04,-860 115.04,-860 173.96,-860 173.96,-860 178.04,-860 182.12,-864.08 182.12,-868.17 182.12,-868.17 182.12,-876.33 182.12,-876.33 182.12,-880.42 178.04,-884.5 173.96,-884.5"/>
<text text-anchor="middle" x="144.5" y="-867.2" font-family="Arial" font-size="14.00" fill="#cfffac">reset.d.ts</text>
</g>
<!-- shared/components/atoms/button.stories.ts -->
<g id="node32" class="node">
<title>shared/components/atoms/button.stories.ts</title>
<path fill="none" stroke="#c6c5fe" d="M280.83,-970.5C280.83,-970.5 8.17,-970.5 8.17,-970.5 4.08,-970.5 0,-966.42 0,-962.33 0,-962.33 0,-954.17 0,-954.17 0,-950.08 4.08,-946 8.17,-946 8.17,-946 280.83,-946 280.83,-946 284.92,-946 289,-950.08 289,-954.17 289,-954.17 289,-962.33 289,-962.33 289,-966.42 284.92,-970.5 280.83,-970.5"/>
<text text-anchor="middle" x="144.5" y="-953.2" font-family="Arial" font-size="14.00" fill="#c6c5fe">shared/components/atoms/button.stories.ts</text>
</g>
<!-- shared/components/atoms/button.tsx -->
<g id="node33" class="node">
<title>shared/components/atoms/button.tsx</title>
<path fill="none" stroke="#cfffac" d="M566.08,-970.5C566.08,-970.5 333.17,-970.5 333.17,-970.5 329.08,-970.5 325,-966.42 325,-962.33 325,-962.33 325,-954.17 325,-954.17 325,-950.08 329.08,-946 333.17,-946 333.17,-946 566.08,-946 566.08,-946 570.17,-946 574.25,-950.08 574.25,-954.17 574.25,-954.17 574.25,-962.33 574.25,-962.33 574.25,-966.42 570.17,-970.5 566.08,-970.5"/>
<text text-anchor="middle" x="449.62" y="-953.2" font-family="Arial" font-size="14.00" fill="#cfffac">shared/components/atoms/button.tsx</text>
</g>
<!-- shared/components/atoms/button.stories.ts&#45;&gt;shared/components/atoms/button.tsx -->
<g id="edge13" class="edge">
<title>shared/components/atoms/button.stories.ts&#45;&gt;shared/components/atoms/button.tsx</title>
<path fill="none" stroke="#757575" d="M289.07,-958.25C297.37,-958.25 305.7,-958.25 313.97,-958.25"/>
<polygon fill="#757575" stroke="#757575" points="313.78,-961.75 323.78,-958.25 313.78,-954.75 313.78,-961.75"/>
</g>
<!-- shared/components/atoms/index.ts -->
<g id="node34" class="node">
<title>shared/components/atoms/index.ts</title>
<path fill="none" stroke="#c6c5fe" d="M254.96,-927.5C254.96,-927.5 34.04,-927.5 34.04,-927.5 29.96,-927.5 25.88,-923.42 25.88,-919.33 25.88,-919.33 25.88,-911.17 25.88,-911.17 25.88,-907.08 29.96,-903 34.04,-903 34.04,-903 254.96,-903 254.96,-903 259.04,-903 263.12,-907.08 263.12,-911.17 263.12,-911.17 263.12,-919.33 263.12,-919.33 263.12,-923.42 259.04,-927.5 254.96,-927.5"/>
<text text-anchor="middle" x="144.5" y="-910.2" font-family="Arial" font-size="14.00" fill="#c6c5fe">shared/components/atoms/index.ts</text>
</g>
<!-- shared/components/atoms/index.ts&#45;&gt;shared/components/atoms/button.tsx -->
<g id="edge14" class="edge">
<title>shared/components/atoms/index.ts&#45;&gt;shared/components/atoms/button.tsx</title>
<path fill="none" stroke="#757575" d="M235.22,-927.98C270.73,-933.01 311.71,-938.83 348.21,-944.01"/>
<polygon fill="#757575" stroke="#757575" points="347.48,-947.58 357.88,-945.52 348.47,-940.65 347.48,-947.58"/>
</g>
<!-- shared/components/atoms/load.tsx -->
<g id="node35" class="node">
<title>shared/components/atoms/load.tsx</title>
<path fill="none" stroke="#cfffac" d="M560.08,-927.5C560.08,-927.5 339.17,-927.5 339.17,-927.5 335.08,-927.5 331,-923.42 331,-919.33 331,-919.33 331,-911.17 331,-911.17 331,-907.08 335.08,-903 339.17,-903 339.17,-903 560.08,-903 560.08,-903 564.17,-903 568.25,-907.08 568.25,-911.17 568.25,-911.17 568.25,-919.33 568.25,-919.33 568.25,-923.42 564.17,-927.5 560.08,-927.5"/>
<text text-anchor="middle" x="449.62" y="-910.2" font-family="Arial" font-size="14.00" fill="#cfffac">shared/components/atoms/load.tsx</text>
</g>
<!-- shared/components/atoms/index.ts&#45;&gt;shared/components/atoms/load.tsx -->
<g id="edge15" class="edge">
<title>shared/components/atoms/index.ts&#45;&gt;shared/components/atoms/load.tsx</title>
<path fill="none" stroke="#757575" d="M263.56,-915.25C282.05,-915.25 301.23,-915.25 319.93,-915.25"/>
<polygon fill="#757575" stroke="#757575" points="319.88,-918.75 329.88,-915.25 319.88,-911.75 319.88,-918.75"/>
</g>
<!-- shared/components/index.ts -->
<g id="node36" class="node">
<title>shared/components/index.ts</title>
<path fill="none" stroke="#cfffac" d="M233.58,-1013.5C233.58,-1013.5 55.42,-1013.5 55.42,-1013.5 51.33,-1013.5 47.25,-1009.42 47.25,-1005.33 47.25,-1005.33 47.25,-997.17 47.25,-997.17 47.25,-993.08 51.33,-989 55.42,-989 55.42,-989 233.58,-989 233.58,-989 237.67,-989 241.75,-993.08 241.75,-997.17 241.75,-997.17 241.75,-1005.33 241.75,-1005.33 241.75,-1009.42 237.67,-1013.5 233.58,-1013.5"/>
<text text-anchor="middle" x="144.5" y="-996.2" font-family="Arial" font-size="14.00" fill="#cfffac">shared/components/index.ts</text>
</g>
<!-- shared/components/molecules/index.ts -->
<g id="node37" class="node">
<title>shared/components/molecules/index.ts</title>
<path fill="none" stroke="#cfffac" d="M268.08,-1056.5C268.08,-1056.5 20.92,-1056.5 20.92,-1056.5 16.83,-1056.5 12.75,-1052.42 12.75,-1048.33 12.75,-1048.33 12.75,-1040.17 12.75,-1040.17 12.75,-1036.08 16.83,-1032 20.92,-1032 20.92,-1032 268.08,-1032 268.08,-1032 272.17,-1032 276.25,-1036.08 276.25,-1040.17 276.25,-1040.17 276.25,-1048.33 276.25,-1048.33 276.25,-1052.42 272.17,-1056.5 268.08,-1056.5"/>
<text text-anchor="middle" x="144.5" y="-1039.2" font-family="Arial" font-size="14.00" fill="#cfffac">shared/components/molecules/index.ts</text>
</g>
<!-- shared/components/organisms/index.ts -->
<g id="node38" class="node">
<title>shared/components/organisms/index.ts</title>
<path fill="none" stroke="#cfffac" d="M268.46,-1099.5C268.46,-1099.5 20.54,-1099.5 20.54,-1099.5 16.46,-1099.5 12.38,-1095.42 12.38,-1091.33 12.38,-1091.33 12.38,-1083.17 12.38,-1083.17 12.38,-1079.08 16.46,-1075 20.54,-1075 20.54,-1075 268.46,-1075 268.46,-1075 272.54,-1075 276.62,-1079.08 276.62,-1083.17 276.62,-1083.17 276.62,-1091.33 276.62,-1091.33 276.62,-1095.42 272.54,-1099.5 268.46,-1099.5"/>
<text text-anchor="middle" x="144.5" y="-1082.2" font-family="Arial" font-size="14.00" fill="#cfffac">shared/components/organisms/index.ts</text>
</g>
<!-- shared/hooks/create&#45;singleton&#45;fc.tsx -->
<g id="node39" class="node">
<title>shared/hooks/create&#45;singleton&#45;fc.tsx</title>
<path fill="none" stroke="#c6c5fe" d="M563.83,-1222.5C563.83,-1222.5 335.42,-1222.5 335.42,-1222.5 331.33,-1222.5 327.25,-1218.42 327.25,-1214.33 327.25,-1214.33 327.25,-1206.17 327.25,-1206.17 327.25,-1202.08 331.33,-1198 335.42,-1198 335.42,-1198 563.83,-1198 563.83,-1198 567.92,-1198 572,-1202.08 572,-1206.17 572,-1206.17 572,-1214.33 572,-1214.33 572,-1218.42 567.92,-1222.5 563.83,-1222.5"/>
<text text-anchor="middle" x="449.62" y="-1205.2" font-family="Arial" font-size="14.00" fill="#c6c5fe">shared/hooks/create&#45;singleton&#45;fc.tsx</text>
</g>
<!-- shared/hooks/with&#45;ref&#45;fc.ts -->
<g id="node40" class="node">
<title>shared/hooks/with&#45;ref&#45;fc.ts</title>
<path fill="none" stroke="#cfffac" d="M784.58,-1202.5C784.58,-1202.5 618.42,-1202.5 618.42,-1202.5 614.33,-1202.5 610.25,-1198.42 610.25,-1194.33 610.25,-1194.33 610.25,-1186.17 610.25,-1186.17 610.25,-1182.08 614.33,-1178 618.42,-1178 618.42,-1178 784.58,-1178 784.58,-1178 788.67,-1178 792.75,-1182.08 792.75,-1186.17 792.75,-1186.17 792.75,-1194.33 792.75,-1194.33 792.75,-1198.42 788.67,-1202.5 784.58,-1202.5"/>
<text text-anchor="middle" x="701.5" y="-1185.2" font-family="Arial" font-size="14.00" fill="#cfffac">shared/hooks/with&#45;ref&#45;fc.ts</text>
</g>
<!-- shared/hooks/create&#45;singleton&#45;fc.tsx&#45;&gt;shared/hooks/with&#45;ref&#45;fc.ts -->
<g id="edge16" class="edge">
<title>shared/hooks/create&#45;singleton&#45;fc.tsx&#45;&gt;shared/hooks/with&#45;ref&#45;fc.ts</title>
<path fill="none" stroke="#757575" d="M572.27,-1200.51C581.27,-1199.79 590.29,-1199.07 599.15,-1198.36"/>
<polygon fill="#757575" stroke="#757575" points="599.17,-1201.79 608.86,-1197.5 598.62,-1194.81 599.17,-1201.79"/>
</g>
<!-- shared/hooks/index.ts -->
<g id="node41" class="node">
<title>shared/hooks/index.ts</title>
<path fill="none" stroke="#c6c5fe" d="M213.33,-1142.5C213.33,-1142.5 75.67,-1142.5 75.67,-1142.5 71.58,-1142.5 67.5,-1138.42 67.5,-1134.33 67.5,-1134.33 67.5,-1126.17 67.5,-1126.17 67.5,-1122.08 71.58,-1118 75.67,-1118 75.67,-1118 213.33,-1118 213.33,-1118 217.42,-1118 221.5,-1122.08 221.5,-1126.17 221.5,-1126.17 221.5,-1134.33 221.5,-1134.33 221.5,-1138.42 217.42,-1142.5 213.33,-1142.5"/>
<text text-anchor="middle" x="144.5" y="-1125.2" font-family="Arial" font-size="14.00" fill="#c6c5fe">shared/hooks/index.ts</text>
</g>
<!-- shared/hooks/index.ts&#45;&gt;shared/hooks/create&#45;singleton&#45;fc.tsx -->
<g id="edge17" class="edge">
<title>shared/hooks/index.ts&#45;&gt;shared/hooks/create&#45;singleton&#45;fc.tsx</title>
<path fill="none" stroke="#757575" d="M184.1,-1142.9C220.27,-1154.51 275.97,-1171.74 325,-1184.25 340.19,-1188.13 356.55,-1191.87 372.22,-1195.24"/>
<polygon fill="#757575" stroke="#757575" points="371.43,-1198.86 381.94,-1197.52 372.89,-1192.02 371.43,-1198.86"/>
</g>
<!-- shared/hooks/index.ts&#45;&gt;shared/hooks/with&#45;ref&#45;fc.ts -->
<g id="edge21" class="edge">
<title>shared/hooks/index.ts&#45;&gt;shared/hooks/with&#45;ref&#45;fc.ts</title>
<path fill="none" stroke="#757575" d="M221.9,-1139.41C253.76,-1143.17 291.16,-1147.51 325,-1151.25 417.67,-1161.48 523.3,-1172.39 598.87,-1180.05"/>
<polygon fill="#757575" stroke="#757575" points="598.49,-1183.64 608.79,-1181.16 599.2,-1176.67 598.49,-1183.64"/>
</g>
<!-- shared/hooks/use&#45;before&#45;unload.ts -->
<g id="node42" class="node">
<title>shared/hooks/use&#45;before&#45;unload.ts</title>
<path fill="none" stroke="#cfffac" d="M559.71,-1142.5C559.71,-1142.5 339.54,-1142.5 339.54,-1142.5 335.46,-1142.5 331.38,-1138.42 331.38,-1134.33 331.38,-1134.33 331.38,-1126.17 331.38,-1126.17 331.38,-1122.08 335.46,-1118 339.54,-1118 339.54,-1118 559.71,-1118 559.71,-1118 563.79,-1118 567.88,-1122.08 567.88,-1126.17 567.88,-1126.17 567.88,-1134.33 567.88,-1134.33 567.88,-1138.42 563.79,-1142.5 559.71,-1142.5"/>
<text text-anchor="middle" x="449.62" y="-1125.2" font-family="Arial" font-size="14.00" fill="#cfffac">shared/hooks/use&#45;before&#45;unload.ts</text>
</g>
<!-- shared/hooks/index.ts&#45;&gt;shared/hooks/use&#45;before&#45;unload.ts -->
<g id="edge18" class="edge">
<title>shared/hooks/index.ts&#45;&gt;shared/hooks/use&#45;before&#45;unload.ts</title>
<path fill="none" stroke="#757575" d="M221.99,-1130.25C251.82,-1130.25 286.85,-1130.25 320.32,-1130.25"/>
<polygon fill="#757575" stroke="#757575" points="320.12,-1133.75 330.12,-1130.25 320.12,-1126.75 320.12,-1133.75"/>
</g>
<!-- shared/hooks/use&#45;doms.ts -->
<g id="node43" class="node">
<title>shared/hooks/use&#45;doms.ts</title>
<path fill="none" stroke="#cfffac" d="M533.46,-1099.5C533.46,-1099.5 365.79,-1099.5 365.79,-1099.5 361.71,-1099.5 357.62,-1095.42 357.62,-1091.33 357.62,-1091.33 357.62,-1083.17 357.62,-1083.17 357.62,-1079.08 361.71,-1075 365.79,-1075 365.79,-1075 533.46,-1075 533.46,-1075 537.54,-1075 541.62,-1079.08 541.62,-1083.17 541.62,-1083.17 541.62,-1091.33 541.62,-1091.33 541.62,-1095.42 537.54,-1099.5 533.46,-1099.5"/>
<text text-anchor="middle" x="449.62" y="-1082.2" font-family="Arial" font-size="14.00" fill="#cfffac">shared/hooks/use&#45;doms.ts</text>
</g>
<!-- shared/hooks/index.ts&#45;&gt;shared/hooks/use&#45;doms.ts -->
<g id="edge19" class="edge">
<title>shared/hooks/index.ts&#45;&gt;shared/hooks/use&#45;doms.ts</title>
<path fill="none" stroke="#757575" d="M221.99,-1119.4C260.23,-1113.98 306.99,-1107.34 348.09,-1101.51"/>
<polygon fill="#757575" stroke="#757575" points="348.56,-1104.84 357.97,-1099.97 347.57,-1097.91 348.56,-1104.84"/>
</g>
<!-- shared/hooks/use&#45;idle.ts -->
<g id="node44" class="node">
<title>shared/hooks/use&#45;idle.ts</title>
<path fill="none" stroke="#cfffac" d="M526.71,-1056.5C526.71,-1056.5 372.54,-1056.5 372.54,-1056.5 368.46,-1056.5 364.38,-1052.42 364.38,-1048.33 364.38,-1048.33 364.38,-1040.17 364.38,-1040.17 364.38,-1036.08 368.46,-1032 372.54,-1032 372.54,-1032 526.71,-1032 526.71,-1032 530.79,-1032 534.88,-1036.08 534.88,-1040.17 534.88,-1040.17 534.88,-1048.33 534.88,-1048.33 534.88,-1052.42 530.79,-1056.5 526.71,-1056.5"/>
<text text-anchor="middle" x="449.62" y="-1039.2" font-family="Arial" font-size="14.00" fill="#cfffac">shared/hooks/use&#45;idle.ts</text>
</g>
<!-- shared/hooks/index.ts&#45;&gt;shared/hooks/use&#45;idle.ts -->
<g id="edge20" class="edge">
<title>shared/hooks/index.ts&#45;&gt;shared/hooks/use&#45;idle.ts</title>
<path fill="none" stroke="#757575" d="M221.77,-1128.6C244.5,-1125.52 268.73,-1119.51 289,-1108.25 310.49,-1096.31 303.65,-1078.45 325,-1066.25 333.85,-1061.19 343.59,-1057.25 353.6,-1054.18"/>
<polygon fill="#757575" stroke="#757575" points="354.4,-1057.32 363.11,-1051.29 352.54,-1050.57 354.4,-1057.32"/>
</g>
<!-- shared/utils/axios&#45;instance.ts -->
<g id="node45" class="node">
<title>shared/utils/axios&#45;instance.ts</title>
<path fill="none" stroke="#c6c5fe" d="M539.83,-1388.5C539.83,-1388.5 359.42,-1388.5 359.42,-1388.5 355.33,-1388.5 351.25,-1384.42 351.25,-1380.33 351.25,-1380.33 351.25,-1372.17 351.25,-1372.17 351.25,-1368.08 355.33,-1364 359.42,-1364 359.42,-1364 539.83,-1364 539.83,-1364 543.92,-1364 548,-1368.08 548,-1372.17 548,-1372.17 548,-1380.33 548,-1380.33 548,-1384.42 543.92,-1388.5 539.83,-1388.5"/>
<text text-anchor="middle" x="449.62" y="-1371.2" font-family="Arial" font-size="14.00" fill="#c6c5fe">shared/utils/axios&#45;instance.ts</text>
</g>
<!-- shared/utils/env&#45;utils.ts -->
<g id="node46" class="node">
<title>shared/utils/env&#45;utils.ts</title>
<path fill="none" stroke="#cfffac" d="M772.58,-1348.5C772.58,-1348.5 630.42,-1348.5 630.42,-1348.5 626.33,-1348.5 622.25,-1344.42 622.25,-1340.33 622.25,-1340.33 622.25,-1332.17 622.25,-1332.17 622.25,-1328.08 626.33,-1324 630.42,-1324 630.42,-1324 772.58,-1324 772.58,-1324 776.67,-1324 780.75,-1328.08 780.75,-1332.17 780.75,-1332.17 780.75,-1340.33 780.75,-1340.33 780.75,-1344.42 776.67,-1348.5 772.58,-1348.5"/>
<text text-anchor="middle" x="701.5" y="-1331.2" font-family="Arial" font-size="14.00" fill="#cfffac">shared/utils/env&#45;utils.ts</text>
</g>
<!-- shared/utils/axios&#45;instance.ts&#45;&gt;shared/utils/env&#45;utils.ts -->
<g id="edge22" class="edge">
<title>shared/utils/axios&#45;instance.ts&#45;&gt;shared/utils/env&#45;utils.ts</title>
<path fill="none" stroke="#757575" d="M530.03,-1363.54C555.9,-1359.4 584.8,-1354.77 611.34,-1350.52"/>
<polygon fill="#757575" stroke="#757575" points="611.84,-1353.83 621.16,-1348.79 610.73,-1346.92 611.84,-1353.83"/>
</g>
<!-- shared/utils/create&#45;immer&#45;store.ts -->
<g id="node47" class="node">
<title>shared/utils/create&#45;immer&#45;store.ts</title>
<path fill="none" stroke="#cfffac" d="M555.21,-1308.5C555.21,-1308.5 344.04,-1308.5 344.04,-1308.5 339.96,-1308.5 335.88,-1304.42 335.88,-1300.33 335.88,-1300.33 335.88,-1292.17 335.88,-1292.17 335.88,-1288.08 339.96,-1284 344.04,-1284 344.04,-1284 555.21,-1284 555.21,-1284 559.29,-1284 563.38,-1288.08 563.38,-1292.17 563.38,-1292.17 563.38,-1300.33 563.38,-1300.33 563.38,-1304.42 559.29,-1308.5 555.21,-1308.5"/>
<text text-anchor="middle" x="449.62" y="-1291.2" font-family="Arial" font-size="14.00" fill="#cfffac">shared/utils/create&#45;immer&#45;store.ts</text>
</g>
<!-- shared/utils/functions.ts -->
<g id="node48" class="node">
<title>shared/utils/functions.ts</title>
<path fill="none" stroke="#c6c5fe" d="M523.33,-1265.5C523.33,-1265.5 375.92,-1265.5 375.92,-1265.5 371.83,-1265.5 367.75,-1261.42 367.75,-1257.33 367.75,-1257.33 367.75,-1249.17 367.75,-1249.17 367.75,-1245.08 371.83,-1241 375.92,-1241 375.92,-1241 523.33,-1241 523.33,-1241 527.42,-1241 531.5,-1245.08 531.5,-1249.17 531.5,-1249.17 531.5,-1257.33 531.5,-1257.33 531.5,-1261.42 527.42,-1265.5 523.33,-1265.5"/>
<text text-anchor="middle" x="449.62" y="-1248.2" font-family="Arial" font-size="14.00" fill="#c6c5fe">shared/utils/functions.ts</text>
</g>
<!-- shared/utils/functions.ts&#45;&gt;shared/utils/env&#45;utils.ts -->
<g id="edge23" class="edge">
<title>shared/utils/functions.ts&#45;&gt;shared/utils/env&#45;utils.ts</title>
<path fill="none" stroke="#757575" d="M531.87,-1264.43C546.16,-1267.32 560.77,-1270.89 574.25,-1275.25 608.19,-1286.24 644.64,-1304.64 669.61,-1318.36"/>
<polygon fill="#757575" stroke="#757575" points="667.48,-1321.73 677.91,-1323.55 670.89,-1315.62 667.48,-1321.73"/>
</g>
<!-- shared/utils/index.ts -->
<g id="node49" class="node">
<title>shared/utils/index.ts</title>
<path fill="none" stroke="#c6c5fe" d="M206.58,-1328.5C206.58,-1328.5 82.42,-1328.5 82.42,-1328.5 78.33,-1328.5 74.25,-1324.42 74.25,-1320.33 74.25,-1320.33 74.25,-1312.17 74.25,-1312.17 74.25,-1308.08 78.33,-1304 82.42,-1304 82.42,-1304 206.58,-1304 206.58,-1304 210.67,-1304 214.75,-1308.08 214.75,-1312.17 214.75,-1312.17 214.75,-1320.33 214.75,-1320.33 214.75,-1324.42 210.67,-1328.5 206.58,-1328.5"/>
<text text-anchor="middle" x="144.5" y="-1311.2" font-family="Arial" font-size="14.00" fill="#c6c5fe">shared/utils/index.ts</text>
</g>
<!-- shared/utils/index.ts&#45;&gt;shared/utils/axios&#45;instance.ts -->
<g id="edge24" class="edge">
<title>shared/utils/index.ts&#45;&gt;shared/utils/axios&#45;instance.ts</title>
<path fill="none" stroke="#757575" d="M214.94,-1324.47C238.61,-1327.92 265.11,-1332.48 289,-1338.25 305.39,-1342.21 308.72,-1345.84 325,-1350.25 339.71,-1354.23 355.53,-1357.97 370.79,-1361.3"/>
<polygon fill="#757575" stroke="#757575" points="369.73,-1364.87 380.24,-1363.54 371.2,-1358.02 369.73,-1364.87"/>
</g>
<!-- shared/utils/index.ts&#45;&gt;shared/utils/env&#45;utils.ts -->
<g id="edge26" class="edge">
<title>shared/utils/index.ts&#45;&gt;shared/utils/env&#45;utils.ts</title>
<path fill="none" stroke="#757575" d="M215.23,-1318.76C315.67,-1322.38 501.1,-1329.06 611.37,-1333.04"/>
<polygon fill="#757575" stroke="#757575" points="611.01,-1336.56 621.13,-1333.43 611.26,-1329.57 611.01,-1336.56"/>
</g>
<!-- shared/utils/index.ts&#45;&gt;shared/utils/create&#45;immer&#45;store.ts -->
<g id="edge25" class="edge">
<title>shared/utils/index.ts&#45;&gt;shared/utils/create&#45;immer&#45;store.ts</title>
<path fill="none" stroke="#757575" d="M215.04,-1311.66C247.64,-1309.51 287.47,-1306.88 324.95,-1304.41"/>
<polygon fill="#757575" stroke="#757575" points="324.7,-1307.87 334.45,-1303.72 324.24,-1300.88 324.7,-1307.87"/>
</g>
<!-- shared/utils/index.ts&#45;&gt;shared/utils/functions.ts -->
<g id="edge27" class="edge">
<title>shared/utils/index.ts&#45;&gt;shared/utils/functions.ts</title>
<path fill="none" stroke="#757575" d="M197.98,-1303.56C233.69,-1295.09 282.08,-1283.96 325,-1275.25 337.27,-1272.76 350.25,-1270.28 363.01,-1267.93"/>
<polygon fill="#757575" stroke="#757575" points="363.45,-1271.23 372.66,-1265.99 362.2,-1264.34 363.45,-1271.23"/>
</g>
<!-- test/setup.ts -->
<g id="node50" class="node">
<title>test/setup.ts</title>
<path fill="none" stroke="#cfffac" d="M182.96,-1371.5C182.96,-1371.5 106.04,-1371.5 106.04,-1371.5 101.96,-1371.5 97.88,-1367.42 97.88,-1363.33 97.88,-1363.33 97.88,-1355.17 97.88,-1355.17 97.88,-1351.08 101.96,-1347 106.04,-1347 106.04,-1347 182.96,-1347 182.96,-1347 187.04,-1347 191.12,-1351.08 191.12,-1355.17 191.12,-1355.17 191.12,-1363.33 191.12,-1363.33 191.12,-1367.42 187.04,-1371.5 182.96,-1371.5"/>
<text text-anchor="middle" x="144.5" y="-1354.2" font-family="Arial" font-size="14.00" fill="#cfffac">test/setup.ts</text>
</g>
</g>
</svg>
